<?xml version="1.0" encoding="UTF-8" standalone="no" ?>
<!DOCTYPE svg PUBLIC "-//W3C//DTD SVG 1.1//EN" "http://www.w3.org/Graphics/SVG/1.1/DTD/svg11.dtd">
<svg xmlns="http://www.w3.org/2000/svg" xmlns:xlink="http://www.w3.org/1999/xlink" version="1.1" width="1080" height="1080" viewBox="0 0 1080 1080" xml:space="preserve">
<desc>Created with Fabric.js 5.2.4</desc>
<defs>
</defs>
<rect x="0" y="0" width="100%" height="100%" fill="transparent"></rect>
<g transform="matrix(1 0 0 1 540 540)" id="838f16cd-153d-42f1-b916-97d9b89f71ce"  >
<rect style="stroke: none; stroke-width: 1; stroke-dasharray: none; stroke-linecap: butt; stroke-dashoffset: 0; stroke-linejoin: miter; stroke-miterlimit: 4; fill: rgb(255,255,255); fill-rule: nonzero; opacity: 1; visibility: hidden;" vector-effect="non-scaling-stroke"  x="-540" y="-540" rx="0" ry="0" width="1080" height="1080" />
</g>
<g transform="matrix(1 0 0 1 540 540)" id="d49b302e-60c8-4fec-abfb-1e7c33f734e0"  >
</g>
<g transform="matrix(1 0 0 1 540 540)" id="662601e6-400c-4e8a-b310-3c9cecac54d6"  >
<path style="stroke: rgb(0,0,0); stroke-width: 0; stroke-dasharray: none; stroke-linecap: butt; stroke-dashoffset: 0; stroke-linejoin: miter; stroke-miterlimit: 4; fill: rgb(0,0,0); fill-rule: nonzero; opacity: 1;" vector-effect="non-scaling-stroke"  transform=" translate(-197.4, -256)" d="M 224 0 C 294.69244797834153 0 352 57.30755202165841 352 127.99999999999997 C 352 198.69244797834153 294.6924479783416 255.99999999999997 224.00000000000003 256 C 153.30755202165844 256 96 198.69244797834156 96 128 C 96 57.30755202165844 153.30755202165844 0 224 0 z M 178.3 304 L 269.70000000000005 304 C 290.30000000000007 304 310.1 307.5 328.50000000000006 313.9 C 323 331 320 349.1 320 368 C 320 427.5 349.5 480.1 394.8 512 L 29.7 512 C 13.3 512 0 498.7 0 482.3 C 0 383.8 79.8 304 178.3 304" stroke-linecap="round" />
</g>
<g transform="matrix(0.56 0 0 0.56 795.15 720.17)" id="6149a616-1729-4e7b-9e8b-5df863400dbc"  >
<path style="stroke: rgb(0,0,0); stroke-width: 0; stroke-dasharray: none; stroke-linecap: butt; stroke-dashoffset: 0; stroke-linejoin: miter; stroke-miterlimit: 4; fill: rgb(0,0,0); fill-rule: nonzero; opacity: 1;" vector-effect="non-scaling-stroke"  transform=" translate(-192, -256)" d="M 80 176 C 80 114.14410801895113 130.14410801895113 64 192 64 C 253.85589198104887 64 304 114.1441080189511 304 175.99999999999997 C 304 237.85589198104887 253.85589198104887 288 192 288 C 130.14410801895113 288 80 237.85589198104887 80 176 z M 224 349.1 C 305.9 334.1 368 262.3 368 176.00000000000003 C 368 78.8 289.2 0 192 0 C 94.80000000000001 0 16 78.8 16 176 C 16 262.3 78.1 334.1 160 349.1 L 160 384 L 128 384 C 110.3 384 96 398.3 96 416 C 96 433.7 110.3 448 128 448 L 160 448 L 160 480 C 160 497.7 174.3 512 192 512 C 209.7 512 224 497.7 224 480 L 224 448 L 256 448 C 273.7 448 288 433.7 288 416 C 288 398.3 273.7 384 256 384 L 224 384 L 224 349.1 z" stroke-linecap="round" />
</g>
</svg>